<svg width="66" height="40" viewBox="0 0 66 40" fill="none" xmlns="http://www.w3.org/2000/svg">
<path d="M54.3951 16.4722C53.9885 16.5165 53.9479 16.9093 53.7963 17.1683C53.0121 18.5076 51.9196 19.4552 50.3558 19.2529C48.7617 19.0468 48.0706 17.6958 47.5554 16.2938C47.3318 15.6839 47.5377 14.6845 46.5745 14.7057C45.5555 14.7276 44.6267 15.0781 44.242 16.2813C43.529 18.5095 42.0148 19.7826 39.6908 19.8575C37.3369 19.9331 35.4708 19.0869 34.6458 16.6397C34.3265 15.6922 33.6084 16.1009 33.0388 16.0608C32.3632 16.0132 32.3954 16.5478 32.3946 17.0315C32.4207 18.9502 32.1215 20.8591 31.5102 22.6733C30.9765 24.191 30.2905 25.6426 28.923 26.5349C24.0522 29.7077 18.7311 31.2273 12.9444 30.8496C10.7981 30.7097 9.18264 29.5405 7.90495 27.8303C6.06712 25.3612 4.96832 22.3999 4.74158 19.305C4.58744 17.7748 4.53902 16.2353 4.59669 14.6981C4.89828 8.94515 8.49704 6.46095 13.0841 5.69641C16.2102 5.22136 19.3973 5.38535 22.461 6.17888C26.0461 7.04324 28.1239 9.37998 28.797 13.0605C28.8472 13.3362 28.9253 13.6073 28.9578 13.8848C29.0339 14.5374 29.4752 14.5571 29.9627 14.5276C30.5577 14.4898 30.56 14.0845 30.5171 13.6296C30.2425 10.6206 29.5957 7.72763 27.9004 5.18633C26.7761 3.50109 25.0645 2.67226 23.2106 2.27033C18.1664 1.17645 13.1232 1.26115 8.20024 2.90934C3.7518 4.39873 2.17032 7.08937 1.88943 12.7403C1.45922 21.3918 3.43618 29.5999 6.1235 37.6858C6.39478 38.5026 6.62578 39.1397 5.68294 39.6898C4.8447 40.1814 4.44184 40.1587 4.11992 39.1083C2.51174 34.0446 1.3504 28.8437 0.649812 23.5679C0.138663 19.3988 -0.2897 15.1972 0.249538 10.9945C1.05895 4.68571 3.46501 1.98183 9.54225 0.749562C14.2974 -0.260574 19.2057 -0.249622 23.9564 0.78171C27.581 1.58784 29.7901 3.82059 30.9521 7.33099C31.6112 9.37092 32.0609 11.4755 32.2941 13.6107C32.3455 14.0508 32.252 14.6475 32.9479 14.5983C33.5607 14.5556 34.2319 14.9586 34.7105 14.0376C35.7269 12.0816 37.1824 11.4414 39.2636 11.8067C40.3657 11.9999 41.1751 12.5826 41.2372 13.7846C41.3007 15.0082 40.4902 15.64 39.4339 15.9134C38.8073 16.0354 38.174 16.118 37.5375 16.1607C37.2847 16.1932 36.9484 16.0711 36.8353 16.4148C36.7388 16.7131 36.9621 16.9532 37.1354 17.1566C38.1148 18.3083 39.3962 18.5224 40.7619 18.2244C42.1079 17.9306 43.2655 17.1404 43.3221 15.6782C43.3816 14.1313 44.0797 13.549 45.3988 13.3271C45.9802 13.2292 46.5394 12.9724 47.1219 12.9051C48.7976 12.7108 49.3509 13.1989 49.5353 14.9341C49.5453 15.0271 49.5372 15.1231 49.5453 15.2142C49.6307 16.2469 49.637 17.4398 50.8732 17.6913C52.196 17.9605 52.9799 17.0054 53.5144 15.9066C53.739 15.3463 53.9314 14.7732 54.0905 14.1899C54.1998 13.8767 54.4143 13.6135 54.6959 13.4472C54.9774 13.281 55.3076 13.2226 55.6274 13.2825C56.4183 13.3725 56.0232 14.047 55.9895 14.5132C55.9829 14.6062 55.9622 14.6981 55.9552 14.7911C55.8402 16.3611 56.4759 17.6436 57.5019 17.9144C58.5915 18.2017 59.81 17.3695 60.3996 15.8657C60.6306 15.2579 60.8027 14.6284 60.9132 13.9861C60.9287 13.8213 60.9776 13.6615 61.0567 13.5171C61.1358 13.3726 61.2434 13.2465 61.3728 13.147C61.5021 13.0474 61.6503 12.9764 61.8079 12.9386C61.9655 12.9008 62.1291 12.897 62.2882 12.9274C63.1497 13.0148 62.6519 13.7101 62.6267 14.1317C62.5159 15.9652 63.068 16.8231 64.8417 17.503C65.307 17.6814 66.0592 17.6686 65.6873 18.5484C65.385 19.2669 64.9503 19.7206 64.0907 19.3402C63.3735 19.0233 62.7545 18.5121 62.3004 17.8618C61.8446 17.219 61.5242 17.2818 61.0545 17.8482C60.4032 18.6495 59.4782 19.167 58.4673 19.2956C56.4785 19.5629 55.2921 18.7292 54.3951 16.4722ZM16.8665 7.27768C16.0445 7.27768 15.2185 7.21869 14.4024 7.28751C10.0892 7.65238 7.26184 9.88249 6.71484 13.7476C6.0946 17.7067 6.74969 21.7649 8.58129 25.3098C9.72962 27.5124 11.5273 28.835 14.0365 29.0017C18.2569 29.2823 22.1369 27.9937 25.9301 26.3088C28.352 25.2327 29.6578 23.2593 30.2173 20.687C30.474 19.4998 30.5894 18.2852 30.5611 17.0696C30.5518 16.6326 30.9307 15.9913 30.0669 15.8907C29.2032 15.7901 29.2667 16.3822 29.2412 16.9581C29.1148 19.8473 28.1133 22.1825 25.4714 23.631C22.5963 25.2062 19.5531 25.7193 16.3424 25.5216C12.9736 25.3144 11.3559 24.0341 10.4489 20.7343C10.2103 19.8816 10.0486 19.0083 9.9658 18.1253C9.61765 14.1695 11.2712 11.3382 14.5488 10.3207C18.1815 9.19319 23.2283 9.74296 24.8778 13.8583C25.2962 14.9015 26.4464 14.6475 27.1693 14.4576C27.8715 14.2735 27.3013 13.4746 27.1627 13.0178C26.8407 11.8666 26.2507 10.8126 25.4431 9.9459C24.6356 9.07924 23.6346 8.42588 22.5261 8.04184C20.7094 7.39842 18.7841 7.13833 16.8665 7.27729V7.27768ZM23.2719 14.0459C22.3047 12.1735 20.6445 11.5568 18.7843 11.3049C16.0578 10.9359 13.5749 12.0884 12.4302 14.2164C11.2416 16.4265 11.5211 19.9747 13.0216 21.9261C13.5878 22.7367 14.4428 23.2872 15.4022 23.4586C18.6642 23.9328 21.8893 23.8367 24.8579 22.1609C26.7587 21.0871 27.7097 19.3682 27.7814 17.1124C27.8117 16.1671 27.5356 15.7629 26.5816 15.736C25.6795 15.7107 25.2736 15.9504 25.2459 16.9713C25.2019 18.6018 24.5637 20.0095 23.0417 20.7313C21.3227 21.5516 19.3603 21.66 17.565 21.0338C16.6328 20.7464 15.8398 20.1118 15.3427 19.2554C14.8455 18.3989 14.6804 17.3829 14.8799 16.408C15.156 14.891 16.4219 14.0765 18.6006 14.0489C20.0997 14.0304 21.5999 14.0459 23.2723 14.0459H23.2719ZM21.0688 15.6631V15.7296C20.3454 15.6888 19.6203 15.6956 18.8978 15.75C18.5333 15.7974 18.1905 15.9531 17.9117 16.1979C17.633 16.4426 17.4306 16.7658 17.3296 17.1271C17.2463 17.395 17.2411 17.682 17.3148 17.9528C17.3884 18.2237 17.5377 18.4667 17.7443 18.652C19.1942 20.2208 22.467 19.7172 23.3924 17.7862C24.1316 16.2435 23.816 15.699 22.1572 15.6642C21.7947 15.6563 21.4317 15.6631 21.0692 15.6631H21.0688ZM37.763 14.6845C38.5495 14.5302 39.6479 14.8554 39.8327 13.6371C39.9366 12.9615 39.2783 12.7119 38.7018 12.7558C37.7623 12.8272 36.9946 13.3483 36.8213 14.2886C36.7137 14.8815 37.4011 14.6066 37.7633 14.6841L37.763 14.6845Z" fill="#666666"/>
<path d="M61.4913 10.1457C61.4105 10.291 61.313 10.426 61.2008 10.5476C60.4049 11.2362 59.5178 11.806 58.5656 12.24C58.4067 12.3367 58.2192 12.3724 58.0369 12.3407C57.8546 12.3091 57.6892 12.2121 57.5703 12.0672C57.2535 11.649 57.6035 11.367 57.8475 11.128C58.6757 10.3166 59.3469 9.18033 60.7891 9.54786C61.1055 9.62878 61.4137 9.68511 61.4913 10.1457Z" fill="#666666"/>
</svg>
